<svg xmlns="http://www.w3.org/2000/svg" xmlns:xlink="http://www.w3.org/1999/xlink" width="266" height="192" viewBox="0 0 266 192">
  <defs>
    <linearGradient id="linear-gradient" x1="0.392" y1="0.623" x2="0.673" y2="0.203" gradientUnits="objectBoundingBox">
      <stop offset="0" stop-opacity="0"/>
      <stop offset="0.99" stop-color="#552800"/>
    </linearGradient>
    <linearGradient id="linear-gradient-2" x1="0.37" y1="0.691" x2="0.74" y2="-0.127" xlink:href="#linear-gradient"/>
  </defs>
  <g id="note_taking_isometric" transform="translate(-22.08 -28.35)">
    <path id="Trazado_63" data-name="Trazado 63" d="M151.129,228.579,27.252,154.127c-3.947-2.28-7.325-5.95-3.483-8.359L148.094,72.9c1.869-1.178,4.7-1.945,6.593-.828l130.058,76.754c3.947,2.325,4.649,8.838.7,11.164L167.461,228.434a16.21,16.21,0,0,1-16.332.144Z" transform="translate(0 -10.364)" fill="#ffd4bf"/>
    <path id="Trazado_64" data-name="Trazado 64" d="M115.582,204.589c2.354.76,6.5,5.639,8.91,6.133,1.495.3,41.013,26.986,42.508,27.1l36.028-23.1-46.664-23.5L143.3,179.26,111.62,197.848C115.522,200.744,111.03,203.175,115.582,204.589Z" transform="translate(-22.612 -36.227)" opacity="0.32" fill="url(#linear-gradient)"/>
    <path id="Trazado_65" data-name="Trazado 65" d="M137.815,175.912l55.013,32.3a4.075,4.075,0,0,0,4.141,0l83.917-49.267a2.3,2.3,0,0,0,0-3.99l-56-32.83a2.211,2.211,0,0,0-2.242,0l-84.829,49.784a2.3,2.3,0,0,0,0,4Z" transform="translate(-28.932 -22.438)" fill="#ab2f6e"/>
    <path id="Trazado_66" data-name="Trazado 66" d="M140.78,168.9v10.784l56.015,32.883,82.781-50.27V153.18" transform="translate(-29.977 -29.966)" fill="#b3b3b3"/>
    <path id="Trazado_67" data-name="Trazado 67" d="M140.78,158.521,196.795,191.4l82.781-48.6-56.06-32.868Z" transform="translate(-29.977 -19.584)" fill="#f2f2f2"/>
    <path id="Trazado_68" data-name="Trazado 68" d="M319.961,146.708a2.851,2.851,0,0,0-2.81,3.572c.09.479.807.274.747-.205a2.134,2.134,0,0,1,.326-1.743,2.063,2.063,0,0,1,1.521-.871,1.659,1.659,0,0,1,1.477.78,1.719,1.719,0,0,1,.077,1.69c-.217.433.426.821.643.38a2.491,2.491,0,0,0-.024-2.35A2.411,2.411,0,0,0,319.961,146.708Z" transform="translate(-74.503 -28.411)" fill="#431700"/>
    <path id="Trazado_69" data-name="Trazado 69" d="M307.461,139.608a2.851,2.851,0,0,0-2.81,3.572c.09.479.807.274.747-.205a2.134,2.134,0,0,1,.326-1.743,2.063,2.063,0,0,1,1.521-.871,1.659,1.659,0,0,1,1.477.78,1.719,1.719,0,0,1,.077,1.69c-.217.433.426.821.643.38a2.491,2.491,0,0,0-.024-2.35A2.411,2.411,0,0,0,307.461,139.608Z" transform="translate(-71.346 -26.707)" fill="#431700"/>
    <path id="Trazado_70" data-name="Trazado 70" d="M294.4,131.538a2.851,2.851,0,0,0-2.81,3.572c.09.479.807.274.747-.205a2.134,2.134,0,0,1,.326-1.743,2.063,2.063,0,0,1,1.521-.871,1.659,1.659,0,0,1,1.477.78,1.719,1.719,0,0,1,.078,1.69c-.217.433.426.821.643.38a2.491,2.491,0,0,0-.024-2.35,2.411,2.411,0,0,0-1.956-1.252Z" transform="translate(-68.048 -24.769)" fill="#431700"/>
    <path id="Trazado_71" data-name="Trazado 71" d="M282.871,124.438a2.851,2.851,0,0,0-2.81,3.572c.09.479.807.274.747-.205a2.134,2.134,0,0,1,.326-1.743,2.063,2.063,0,0,1,1.521-.871,1.659,1.659,0,0,1,1.477.78,1.719,1.719,0,0,1,.077,1.69c-.217.433.426.821.643.38a2.491,2.491,0,0,0-.024-2.35,2.411,2.411,0,0,0-1.956-1.252Z" transform="translate(-65.136 -23.065)" fill="#431700"/>
    <path id="Trazado_72" data-name="Trazado 72" d="M272.271,119.268a2.851,2.851,0,0,0-2.81,3.572c.09.479.807.274.747-.205a2.133,2.133,0,0,1,.326-1.743,2.063,2.063,0,0,1,1.521-.871,1.659,1.659,0,0,1,1.477.78,1.719,1.719,0,0,1,.078,1.69c-.217.433.426.821.643.38a2.491,2.491,0,0,0-.024-2.35,2.411,2.411,0,0,0-1.956-1.252Z" transform="translate(-62.459 -21.824)" fill="#431700"/>
    <path id="Trazado_73" data-name="Trazado 73" d="M259.711,111.238a2.851,2.851,0,0,0-2.81,3.572c.09.479.807.274.747-.205a2.133,2.133,0,0,1,.326-1.743,2.063,2.063,0,0,1,1.521-.871,1.659,1.659,0,0,1,1.477.78,1.719,1.719,0,0,1,.077,1.69c-.217.433.426.821.643.38a2.491,2.491,0,0,0-.024-2.35A2.411,2.411,0,0,0,259.711,111.238Z" transform="translate(-59.287 -19.896)" fill="#431700"/>
    <ellipse id="Elipse_5" data-name="Elipse 5" cx="1.996" cy="1.193" rx="1.996" ry="1.193" transform="translate(240.66 120.676)" fill="#2d0f02"/>
    <ellipse id="Elipse_6" data-name="Elipse 6" cx="1.996" cy="1.193" rx="1.996" ry="1.193" transform="translate(231.257 115.554)" fill="#2d0f02"/>
    <ellipse id="Elipse_7" data-name="Elipse 7" cx="1.996" cy="1.193" rx="1.996" ry="1.193" transform="translate(221.487 109.421)" fill="#2d0f02"/>
    <ellipse id="Elipse_8" data-name="Elipse 8" cx="1.996" cy="1.193" rx="1.996" ry="1.193" transform="translate(212.869 104.025)" fill="#2d0f02"/>
    <ellipse id="Elipse_9" data-name="Elipse 9" cx="1.996" cy="1.193" rx="1.996" ry="1.193" transform="translate(204.946 99.823)" fill="#2d0f02"/>
    <ellipse id="Elipse_10" data-name="Elipse 10" cx="1.996" cy="1.193" rx="1.996" ry="1.193" transform="translate(195.565 93.994)" fill="#2d0f02"/>
    <line id="Línea_2" data-name="Línea 2" x2="45.55" y2="26.864" transform="translate(182.081 102.885)" fill="#2d0f02"/>
    <path id="Trazado_74" data-name="Trazado 74" d="M235.666,126.743l45.55,26.864a.558.558,0,0,0,.77-.205.577.577,0,0,0-.2-.783l-45.55-26.864a.558.558,0,0,0-.77.205.577.577,0,0,0,.2.783Z" transform="translate(-53.869 -23.364)" fill="#999"/>
    <line id="Línea_3" data-name="Línea 3" x2="45.55" y2="26.856" transform="translate(175.466 106.936)" fill="#2d0f02"/>
    <path id="Trazado_75" data-name="Trazado 75" d="M226.816,132.063l45.55,26.864a.558.558,0,0,0,.77-.205.577.577,0,0,0-.2-.783l-45.55-26.864a.558.558,0,0,0-.77.205.577.577,0,0,0,.2.783Z" transform="translate(-51.634 -24.641)" fill="#999"/>
    <line id="Línea_4" data-name="Línea 4" x2="45.55" y2="26.864" transform="translate(169.389 109.71)" fill="#2d0f02"/>
    <path id="Trazado_76" data-name="Trazado 76" d="M218.686,135.723l45.55,26.864a.558.558,0,0,0,.77-.205.577.577,0,0,0-.2-.783l-45.55-26.864a.558.558,0,0,0-.77.205.578.578,0,0,0,.2.783Z" transform="translate(-49.58 -25.52)" fill="#999"/>
    <line id="Línea_5" data-name="Línea 5" x2="45.558" y2="26.864" transform="translate(162.774 113.76)" fill="#2d0f02"/>
    <path id="Trazado_77" data-name="Trazado 77" d="M209.836,141.053l45.55,26.864a.558.558,0,0,0,.77-.205.577.577,0,0,0-.2-.783L210.4,140.065a.558.558,0,0,0-.77.205.577.577,0,0,0,.2.783Z" transform="translate(-47.345 -26.799)" fill="#999"/>
    <line id="Línea_6" data-name="Línea 6" x2="45.558" y2="26.864" transform="translate(150.994 121.755)" fill="#2d0f02"/>
    <path id="Trazado_78" data-name="Trazado 78" d="M194.076,151.573l45.55,26.864a.558.558,0,0,0,.77-.205.577.577,0,0,0-.2-.783l-45.55-26.864a.558.558,0,0,0-.77.205.578.578,0,0,0,.2.783Z" transform="translate(-43.365 -29.325)" fill="#999"/>
    <line id="Línea_7" data-name="Línea 7" x2="45.55" y2="26.864" transform="translate(144.387 125.798)" fill="#2d0f02"/>
    <path id="Trazado_79" data-name="Trazado 79" d="M185.236,156.893l45.55,26.864a.558.558,0,0,0,.77-.205.577.577,0,0,0-.2-.783L185.8,155.905a.558.558,0,0,0-.77.205A.577.577,0,0,0,185.236,156.893Z" transform="translate(-41.133 -30.602)" fill="#999"/>
    <line id="Línea_8" data-name="Línea 8" x2="45.558" y2="26.864" transform="translate(138.303 128.579)" fill="#2d0f02"/>
    <path id="Trazado_80" data-name="Trazado 80" d="M177.108,160.553l45.55,26.864a.558.558,0,0,0,.77-.205.578.578,0,0,0-.2-.783l-45.513-26.864a.558.558,0,0,0-.77.205.577.577,0,0,0,.2.783Z" transform="translate(-39.09 -31.48)" fill="#999"/>
    <line id="Línea_9" data-name="Línea 9" x2="45.558" y2="26.856" transform="translate(133.369 131.839)" fill="#2d0f02"/>
    <path id="Trazado_81" data-name="Trazado 81" d="M170.5,164.833l45.55,26.864a.558.558,0,0,0,.77-.205.577.577,0,0,0-.2-.783l-45.55-26.864a.558.558,0,0,0-.77.205A.577.577,0,0,0,170.5,164.833Z" transform="translate(-37.411 -32.508)" fill="#999"/>
    <path id="Trazado_82" data-name="Trazado 82" d="M154.468,122.2a66.57,66.57,0,0,0,7.138,1.945,35.954,35.954,0,0,0,4.485.524l2.511-1.733L185.98,109.8l-13.29-4.491L141.23,116.474C145.117,119.354,149.915,120.79,154.468,122.2Z" transform="translate(-30.09 -18.475)" opacity="0.32" fill="url(#linear-gradient-2)"/>
    <path id="Trazado_83" data-name="Trazado 83" d="M188.823,91.3a14.586,14.586,0,0,1-8.753-3.42v9.454a9.731,9.731,0,0,0,9.665,9.8h0a9.731,9.731,0,0,0,9.65-9.811V87.72C196.073,89.08,192.336,91.611,188.823,91.3Z" transform="translate(-39.899 -14.252)" fill="#26d0d4"/>
    <ellipse id="Elipse_11" data-name="Elipse 11" cx="9.65" cy="5.198" rx="9.65" ry="5.198" transform="translate(140.164 68.369)" fill="#5ed18d"/>
    <path id="Trazado_84" data-name="Trazado 84" d="M190.2,85.282s-6.563-.98-8.3-11.772C181.878,73.518,187.476,76.656,190.2,85.282Z" transform="translate(-40.361 -10.841)" fill="#5ed18d"/>
    <path id="Trazado_85" data-name="Trazado 85" d="M193.13,79.95s-7.527-13.732,0-22.95a39.082,39.082,0,0,1,0,22.95Z" transform="translate(-42.352 -6.878)" fill="#5ed18d"/>
    <path id="Trazado_86" data-name="Trazado 86" d="M190.2,72.122s-6.563-.98-8.3-11.772C181.878,60.358,187.476,63.5,190.2,72.122Z" transform="translate(-40.361 -7.682)" fill="#5ed18d"/>
    <path id="Trazado_87" data-name="Trazado 87" d="M193.961,77.736s-1.644-6.528,7.475-12.326C201.436,65.41,200.778,71.87,193.961,77.736Z" transform="translate(-43.378 -8.896)" fill="#5ed18d"/>
    <ellipse id="Elipse_12" data-name="Elipse 12" cx="9.65" cy="5.198" rx="9.65" ry="5.198" transform="translate(140.164 68.369)" fill="#146666"/>
    <path id="Trazado_88" data-name="Trazado 88" d="M190.2,85.282s-6.563-.98-8.3-11.772C181.878,73.518,187.476,76.656,190.2,85.282Z" transform="translate(-40.361 -10.841)" fill="#5ed18d"/>
    <path id="Trazado_89" data-name="Trazado 89" d="M193.13,79.95s-7.527-13.732,0-22.95a39.082,39.082,0,0,1,0,22.95Z" transform="translate(-42.352 -6.878)" fill="#5ed18d"/>
    <path id="Trazado_90" data-name="Trazado 90" d="M190.2,72.122s-6.563-.98-8.3-11.772C181.878,60.358,187.476,63.5,190.2,72.122Z" transform="translate(-40.361 -7.682)" fill="#5ed18d"/>
    <path id="Trazado_91" data-name="Trazado 91" d="M193.961,77.736s-1.644-6.528,7.475-12.326C201.436,65.41,200.778,71.87,193.961,77.736Z" transform="translate(-43.378 -8.896)" fill="#5ed18d"/>
    <path id="Trazado_92" data-name="Trazado 92" d="M245.755,148.89l-2.138-1.17c.239-.6-.434-1.011-.919-.935l-3.065-2.356a.767.767,0,0,0,.246-1.022.741.741,0,0,0-.994-.293l-2.893-.578.157-.084c.747-.418.239-1.672-.576-1.391l-.179.084h-.045a2.416,2.416,0,0,0-.306.167,8.233,8.233,0,0,1-4.231,1.079c1.727-1.208,2.661-2.515.135-4.408l-.224-.152a12.686,12.686,0,0,0,3.281-5.912c2.145-9.438-12.228-3.488-15.51-1.14-.747.555,0,1.877.747,1.315a20.194,20.194,0,0,1,6.5-3.222c1.2-.327,2.99-1.026,4.1-.623a3.622,3.622,0,0,1,2.128,2.06,3.711,3.711,0,0,1-.094,2.986,13.9,13.9,0,0,1-2.713,3.716c-2.781-1.079-6.152-.616-8.97,0-2.534.54-9.553,1.672-10.554,4.8-.747,2.4,1.846,2.933,3.573,2.956a26.385,26.385,0,0,0,15.57-5.206c0,.106.045.213.052.334q1.644,1.816-.628,2.325a.764.764,0,0,0-.366.756.756.756,0,0,0,.545.635,10.043,10.043,0,0,0,5.7-.243,2.634,2.634,0,0,0,.172.608c.62,1.474,1.958,1.581,3.266,1.246a2.7,2.7,0,0,0,.381,1.565c.852,1.482,2.459,1.687,3.984,1.573-.045,1.907,2.444,2.28,4.216,1.968C247.108,150.205,246.7,148.738,245.755,148.89ZM213.9,143.267q-1.809.684-1.345-1.041-.531-1.429,1.024-1.52a11.562,11.562,0,0,1,3.416-1.277,30.048,30.048,0,0,1,6.922-1.467,14.7,14.7,0,0,1,2.3,0,2.547,2.547,0,0,1,1.712.182,22.941,22.941,0,0,1-7.161,3.845c-1.921.654-4.858,1.74-6.862,1.269Z" transform="translate(-47.334 -23.625)" fill="#431700"/>
    <path id="Trazado_93" data-name="Trazado 93" d="M114.341,31.71s-8.5,4.43-12.445,6.505S86.3,44.059,86.2,48.7s3.939,6.156,1.749,9.666-1.495,9.993,3.737,11.278S116.21,48.5,116.21,48.5" transform="translate(-16.192 -0.807)" fill="#663a12"/>
    <path id="Trazado_94" data-name="Trazado 94" d="M103.222,169.041s-.12,6.148.605,6.52,5.277,6.422,5.6,7.371c1.054,3.154-2.624,2.911-4.679,1.847s-7.549-5.32-7.789-6.839S95,167.24,95,167.24" transform="translate(-18.415 -33.341)" fill="#663a12"/>
    <path id="Trazado_95" data-name="Trazado 95" d="M114.7,162s-.12,6.148.605,6.52,6.152,5.859,6.533,6.786c1.188,2.926-2.594,3.04-4.649,1.976s-8.514-4.9-8.753-6.4S106.51,160.2,106.51,160.2" transform="translate(-21.322 -31.651)" fill="#663a12"/>
    <path id="Trazado_96" data-name="Trazado 96" d="M85.148,84.653s-4.335,6.9-3.737,13.094S88.086,153.223,92,152.691s6.256.068,8.3-5.145c0,0,6.578,1.52,8.663-3.8,0,0-1.585-46.2-5.322-53.447S85.148,84.653,85.148,84.653Z" transform="translate(-14.969 -13.48)" fill="#4c74f6"/>
    <path id="Trazado_97" data-name="Trazado 97" d="M156.4,58.709a20.407,20.407,0,0,0-3.319-.562,18.235,18.235,0,0,1,3.393.357c1.166.19,1.3-1.672.142-1.869l-.576-.091a.986.986,0,0,0,.149-.962.96.96,0,0,0-.747-.611,17.769,17.769,0,0,0-7.617.707,15.846,15.846,0,0,0-.052-2.835.836.836,0,0,0-.179-.441.961.961,0,0,0-1-.556.972.972,0,0,0-.821.807c-.254,1.52-.179,3.04-.426,4.514a5.976,5.976,0,0,1-.2.76q-1.7,1.793-3.349,3.64c-.747.874.65,1.907,1.45,1.132a1.088,1.088,0,0,0,.493.41l-.135.182a.847.847,0,0,0-.1.836l-.127.129c-.845.836.336,2.28,1.181,1.436l.292-.3a.737.737,0,0,0,.605.094.75.75,0,0,0,.471-.4,8.743,8.743,0,0,1,2.855-2.888l.359-.251a11.484,11.484,0,0,1,3.094-.616c.747.205,1.562.441,2.332.692a.914.914,0,0,0,1.215-.475.942.942,0,0,0-.467-1.235l.5.114C156.919,60.769,157.554,59.005,156.4,58.709Z" transform="translate(-30.18 -5.638)" fill="#ffc388"/>
    <path id="Trazado_98" data-name="Trazado 98" d="M159.792,57.65a20.038,20.038,0,0,0-3.663-.167c-.3,0-.336.494,0,.479a20.036,20.036,0,0,1,3.663.167C160.061,58.167,160.091,57.688,159.792,57.65Z" transform="translate(-33.793 -6.989)" fill="#663a12"/>
    <path id="Trazado_99" data-name="Trazado 99" d="M159.941,60.111a24.826,24.826,0,0,0-3.9-.281.239.239,0,0,0,0,.479,24.82,24.82,0,0,1,3.9.281C160.21,60.635,160.24,60.157,159.941,60.111Z" transform="translate(-33.77 -7.557)" fill="#663a12"/>
    <path id="Trazado_100" data-name="Trazado 100" d="M152.938,60.94a4.729,4.729,0,0,0-4.231.813c-.254.167.052.532.3.365a4.228,4.228,0,0,1,3.737-.76.231.231,0,0,0,.266-.128A.238.238,0,0,0,152.938,60.94Z" transform="translate(-31.954 -7.778)" fill="#663a12"/>
    <path id="Trazado_101" data-name="Trazado 101" d="M154.7,60.057a3.336,3.336,0,0,0-1.764-2.584c-.277-.122-.441.334-.157.448a2.85,2.85,0,0,1,1.495,2.219A.217.217,0,1,0,154.7,60.057Z" transform="translate(-32.97 -6.986)" fill="#663a12"/>
    <path id="Trazado_102" data-name="Trazado 102" d="M159.359,62.228a9.829,9.829,0,0,0-2.99-.828.239.239,0,0,0,0,.479,9.423,9.423,0,0,1,2.885.8C159.479,62.806,159.636,62.35,159.359,62.228Z" transform="translate(-33.853 -7.934)" fill="#663a12"/>
    <path id="Trazado_103" data-name="Trazado 103" d="M130.449,57.64l2.16,13.436s-1.644,5.008-5.18,5.654-6.189-16.058-6.189-16.058" transform="translate(-25.042 -7.031)" fill="#fcb749"/>
    <path id="Trazado_104" data-name="Trazado 104" d="M111.132,48.166a33.614,33.614,0,0,0-8.035,1.725c-3.506,1.155-18.731,23.779-16.728,26.036s11.4,6.771,17.042,5.525,18.8-23.558,18.186-26.1c-1.413-5.814-5.83-5.829-5.83-5.829" transform="translate(-16.19 -4.754)" fill="#fcb749"/>
    <path id="Trazado_105" data-name="Trazado 105" d="M129.593,39.021s1.024,8.519-2.011,10.054-6.324-1.657-7.3-3.511-2.018-11.224,3.678-10.594S129.593,39.021,129.593,39.021Z" transform="translate(-24.605 -1.582)" fill="#ffc388"/>
    <path id="Trazado_106" data-name="Trazado 106" d="M128.892,32.5c-2.317-.821-5-2.591-9.119.175s-5.4,10.457-.478,12.319l.7-2.075a3.221,3.221,0,0,1-.351-.494,2.522,2.522,0,0,1-.389-1.246,2.579,2.579,0,0,1,.06-1.338c0-.053,0-.1,0-.152h9.859a2,2,0,0,0,1.719-.828C132.18,37.884,131.814,33.537,128.892,32.5Z" transform="translate(-23.746 -0.681)" fill="#663a12"/>
    <path id="Trazado_107" data-name="Trazado 107" d="M140.516,60.21A99.34,99.34,0,0,0,131.8,67.3l-4.261,9.317s2.5,3.587,7.153,1.064c3.3-1.793,8.521-8.314,11.018-12.2a9.543,9.543,0,0,0-5.195-5.274Z" transform="translate(-26.633 -7.648)" fill="#fcb749"/>
    <path id="Trazado_108" data-name="Trazado 108" d="M102.6,103.379c-.06-.638-1.046-.638-.987,0l4.485,48.53c.06.638,1.046.638.987,0Z" transform="translate(-20.084 -17.896)" fill="#663a12"/>
    <path id="Trazado_109" data-name="Trazado 109" d="M117.988,73.912s-4.9-4.142-4.9-5.95,2.541-15.1-1.667-16.156S103.808,60.8,102.6,66.7,115.2,83.518,115.2,83.518" transform="translate(-20.317 -5.612)" fill="#fcb749"/>
    <path id="Trazado_110" data-name="Trazado 110" d="M119.319,39.31c-.254-2.9-4.739-2.926-4.485,0a13.97,13.97,0,0,1-.12,5.32,5.442,5.442,0,0,1-1.271,2.28h-.411a6.89,6.89,0,0,0-1.495-.076c-2.885,0-2.893,4.56,0,4.56,1.368,0,2.631.616,3.864-.205a9.63,9.63,0,0,0,2.736-3.222C119.648,45.267,119.558,42.243,119.319,39.31Z" transform="translate(-22.045 -2.106)" fill="#663a12"/>
    <path id="Trazado_111" data-name="Trazado 111" d="M88.53,35.539a9,9,0,0,1,7.093-7.189l65.993,75.592-7.475,6.748Z" transform="translate(-16.781 0)" fill="#f64c4c"/>
    <path id="Trazado_118" data-name="Trazado 118" d="M5.059.014c2.782-.022,5.029.916,5.02,2.094S7.807,4.258,5.025,4.28,0,3.364.006,2.186,2.277.035,5.059.014Z" transform="translate(135.9 109.061) rotate(-41.59)" fill="#26d0d4"/>
    <path id="Trazado_112" data-name="Trazado 112" d="M176.79,135.05s-.987-2.523,2.123-5.084,5.068-1.983,5.068-1.983l9.493,17.585Z" transform="translate(-39.033 -23.904)" fill="#fff8e3"/>
    <path id="Trazado_113" data-name="Trazado 113" d="M196.541,148.626l-7.751-4.886a3.653,3.653,0,0,1,3.483-3.04Z" transform="translate(-42.101 -26.97)" fill="#653200"/>
    <path id="Trazado_114" data-name="Trazado 114" d="M134.111,94.48l4.485.532s3.588-.76,4.388.669c.217.388-3.565.935-3.565.935s5.449,1.459,5.12,2.553-3.954,3.2-4.649,3.4-7.609-5.32-7.609-5.32" transform="translate(-27.83 -15.875)" fill="#ffc388"/>
    <path id="Trazado_115" data-name="Trazado 115" d="M130.656,89.827c-1.764-2.538-5.434-5.023-8.424-7.9-4.059-3.42-8.3-7.751-11.571-3.078-3.64,5.2,10.666,14.948,14.83,17.631A13.463,13.463,0,0,0,130.656,89.827Z" transform="translate(-22.222 -11.633)" fill="#fcb749"/>
    <path id="Trazado_116" data-name="Trazado 116" d="M101.914,70.156a17.761,17.761,0,0,0-.434,7.713c.366,1.945.912,3.845,1.428,5.76a33.432,33.432,0,0,0,7.123.973s-6.645-7.212-7.191-10.563a16.221,16.221,0,0,1,0-5.7Z" transform="translate(-19.992 -9.6)" fill="#bc7c1e"/>
    <path id="Trazado_117" data-name="Trazado 117" d="M80.938,190.754a66.577,66.577,0,0,0,7.138,1.945,35.958,35.958,0,0,0,4.485.524l2.511-1.733,17.378-13.139-13.29-4.491L67.7,185.008C71.587,187.9,76.385,189.34,80.938,190.754Z" transform="translate(-11.521 -34.931)" opacity="0.32" fill="url(#linear-gradient-2)"/>
  </g>
</svg>

