<svg xmlns="http://www.w3.org/2000/svg" xmlns:xlink="http://www.w3.org/1999/xlink" width="266" height="192" viewBox="0 0 266 192">
  <defs>
    <linearGradient id="linear-gradient" x1="0.286" y1="0.722" x2="0.724" y2="0.209" gradientUnits="objectBoundingBox">
      <stop offset="0" stop-color="#fff" stop-opacity="0"/>
      <stop offset="0.99" stop-color="#dc841e"/>
    </linearGradient>
    <linearGradient id="linear-gradient-2" x1="0.214" y1="0.922" x2="0.677" y2="0.216" xlink:href="#linear-gradient"/>
  </defs>
  <g id="Grupo_4" data-name="Grupo 4" transform="translate(-54.607 -78.727)">
    <g id="Smiley_face_Isometric" data-name="Smiley face_Isometric" transform="translate(54.607 78.727)">
      <path id="Trazado_1" data-name="Trazado 1" d="M151.129,225.757,27.252,152.643c-3.947-2.239-7.325-5.843-3.483-8.209L148.094,72.872c1.869-1.157,4.7-1.91,6.593-.813l130.058,75.375c3.947,2.284,4.649,8.679.7,10.963L167.461,225.615a16.466,16.466,0,0,1-16.332.142Z" transform="translate(-22.08 -35.854)" fill="#ffd4bf"/>
      <path id="Trazado_2" data-name="Trazado 2" d="M180.958,251.262l35.721-20.224-16.863-7.6L166.27,242.1Q173.745,246.478,180.958,251.262Z" transform="translate(-58.493 -74.397)" opacity="0.32" fill="url(#linear-gradient)"/>
      <path id="Trazado_3" data-name="Trazado 3" d="M226.254,67.09c1.1.91,5.613,31.561,4.911,33.762s-7.534,5.537-7.534,5.537" transform="translate(-72.979 -34.729)" fill="#4c74f6"/>
      <path id="Trazado_4" data-name="Trazado 4" d="M168.8,60.779l-.434-.746a.7.7,0,0,0,.292-.9c-.374-.836-.747-1.672-1.144-2.5a.671.671,0,0,0,0-.306,18.674,18.674,0,0,1-.635-5.739c.172-1.552.635-3.045.747-4.6.052-.552-.583-.746-.994-.567a1.605,1.605,0,0,0-.747.828,5.361,5.361,0,0,0-.9,2.343,3.585,3.585,0,0,0-.269-1.052l-.314-1.269a9.237,9.237,0,0,0-.665-1.94c-.291-.582-.957-.851-1.293-.47-.508.575,0,1.619.082,2.291a15.036,15.036,0,0,0,.374,1.94c-.262-.627-.792-1.716-1.136-2.478-.269-.582-1.024-2.478-1.861-2.239s-.441,1.552-.209,2.164l.65,1.761c.194.522.411,1.209.635,1.687,0,0-.882-1.284-1.316-1.963-.351-.537-.747-1.328-1.495-1.082-.508.157-.478.918-.239,1.366.635,1.194,1.338,2.351,2.078,3.478-.471-.44-.934-.9-1.42-1.321a.688.688,0,0,0-1.121.575.567.567,0,0,0,.1.351l6.077,8.717a12.76,12.76,0,0,0,2.467,3.731c.583.612,1.495-.313.934-.933l-.082-.1a.658.658,0,0,0,.06-.1.7.7,0,0,0,.463-.358h.045a.665.665,0,0,0,.209.1.65.65,0,0,0,1.061-.679Z" transform="translate(-56.268 -28.709)" fill="#ffb7a2"/>
      <path id="Trazado_5" data-name="Trazado 5" d="M165.86,50.986a3.975,3.975,0,0,0-1.495,3.455c0,.3.493.3.463,0a3.55,3.55,0,0,1,1.353-3.127C166.428,51.158,166.092,50.829,165.86,50.986Z" transform="translate(-58.009 -30.633)" fill="#42342d"/>
      <path id="Trazado_6" data-name="Trazado 6" d="M165.072,48.755q-.5-1.836-.845-3.731c-.052-.291-.5-.172-.448.127q.344,1.873.845,3.731a.233.233,0,0,0,.448-.127Z" transform="translate(-57.863 -29.088)" fill="#42342d"/>
      <path id="Trazado_7" data-name="Trazado 7" d="M162.22,49.969a26.635,26.635,0,0,1-1.495-4.217.233.233,0,0,0-.448.127,27.366,27.366,0,0,0,1.577,4.328C161.944,50.476,162.31,50.238,162.22,49.969Z" transform="translate(-56.978 -29.273)" fill="#42342d"/>
      <path id="Trazado_8" data-name="Trazado 8" d="M160.921,52.591a17.506,17.506,0,0,1-2.5-3.769c-.135-.269-.538,0-.4.231a17.977,17.977,0,0,0,2.571,3.866C160.794,53.143,161.123,52.814,160.921,52.591Z" transform="translate(-56.403 -30.066)" fill="#42342d"/>
      <path id="Trazado_9" data-name="Trazado 9" d="M218.712,203.42s-.336,9.232,1.353,12.023,10.128,7.5,7.9,9.47-7.475.978-9.239-1.187a43.708,43.708,0,0,1-3.117-4.769v3.5s-3.513-2.09-3.513-2.239-.807-20.829-.807-20.829" transform="translate(-69.863 -68.295)" fill="#42342d"/>
      <path id="Trazado_10" data-name="Trazado 10" d="M201.6,208.632s-.344,9.209,1.368,11.993,10.592,9.157,8.342,11.12-7.475.157-9.665-2.537a31.832,31.832,0,0,1-3.177-5.067v3.485s-3.543-2.082-3.543-2.239-.815-20.777-.815-20.777" transform="translate(-65.524 -69.619)" fill="#42342d"/>
      <path id="Trazado_11" data-name="Trazado 11" d="M215.781,105.7c.448,1.157,4.582,68.771.224,77.375a21.937,21.937,0,0,1-11.5,2.425l-1.42,5.037s-10.689,3.314-18.41.1c0,0-4.485-60.4,9.179-85.182" transform="translate(-62.963 -44.461)" fill="#f82424"/>
      <path id="Trazado_12" data-name="Trazado 12" d="M219.242,93.486c.262-3.1.262-7.194.314-7.918q.194-2.769.351-5.537.194-3.351.329-6.717c.135-3.217.508-7-1.727-9.657-2.362-2.776-7.43-3.672-10.876-3.224a14.374,14.374,0,0,0-8.917,5.493,206.341,206.341,0,0,0-1.562,28.061C203.829,95.956,214.025,97.829,219.242,93.486Z" transform="translate(-66.289 -33.012)" fill="#4c74f6"/>
      <path id="Trazado_13" data-name="Trazado 13" d="M198.645,59.771a16.463,16.463,0,0,0-7.789,2.411c-1.779,1.164-2.81,3.052-4.739,4.015-2.594,1.3-6.391,1.284-8.529-.91a47.343,47.343,0,0,1-3.266-3.94c-.8-1.022-4.081-6.336-5.815-5.694-2.026.746-4.941,3.6-5.068,5.224s8.476,18.463,16.04,19.65a20.207,20.207,0,0,0,13.529-2.985" transform="translate(-57.778 -31.814)" fill="#4c74f6"/>
      <path id="Trazado_14" data-name="Trazado 14" d="M208.1,57.24v4.821a9.859,9.859,0,0,0,5.83,0V57.733" transform="translate(-69.057 -32.23)" fill="#fcaa97"/>
      <path id="Trazado_15" data-name="Trazado 15" d="M217.957,42.373c.336.082,2.474,14.448-3.5,14.568s-7.123-4.575-7.3-5.776,1.719-4.851,2.31-6.209S216.5,42.014,217.957,42.373Z" transform="translate(-68.816 -28.445)" fill="#ffb7a2"/>
      <path id="Trazado_16" data-name="Trazado 16" d="M217.337,39.537c-1.8-3.246-8.768-3.985-13.619.455a7.1,7.1,0,0,0-1.958,4.873,10.216,10.216,0,0,0,5.733,8.523v-.052a.564.564,0,0,0-.052-.269c-.052-.09,0-.127-.037-.194a12.662,12.662,0,0,1,.792-7.926c1.188-2.254,3.588-2.9,5.942-3.269a7.486,7.486,0,0,1,2.332-.231l.747,3.687a4.971,4.971,0,0,0,.12-5.6Z" transform="translate(-67.456 -27.065)" fill="#edb033"/>
      <ellipse id="Elipse_2" data-name="Elipse 2" cx="4.597" cy="4.59" rx="4.597" ry="4.59" transform="translate(127.129 9.969) rotate(-3.98)" fill="#edb033"/>
      <path id="Trazado_17" data-name="Trazado 17" d="M218.239,44.664H212.6l-.523-1.694-.486,2.1-1.607.1s-.082,8.679-1.323,8.866-2.99-3.537-3.162-5.717,1.017-6.881,5.1-8.142C215.7,38.6,218,40.656,218.239,44.664Z" transform="translate(-68.395 -27.766)" fill="#edb033"/>
      <path id="Trazado_18" data-name="Trazado 18" d="M214.966,127.283q-1.061,31.9-4.417,63.659c-.067.657.957.649,1.024,0q3.349-31.74,4.418-63.659C216.013,126.626,214.989,126.626,214.966,127.283Z" transform="translate(-69.675 -49.876)" fill="#fff"/>
      <path id="Trazado_19" data-name="Trazado 19" d="M326.426,184.12l-52.1,29.5-13.768-7.649L311.746,177.5" transform="translate(-82.305 -62.741)" opacity="0.32" fill="url(#linear-gradient-2)"/>
      <path id="Trazado_20" data-name="Trazado 20" d="M328.9,160.383s-2.952,20.15,9.717,20.195c12.191.067,9.044-20.441,9.044-20.441S338.8,152.472,328.9,160.383Z" transform="translate(-99.488 -57.49)" fill="#bbbdbe"/>
      <path id="Trazado_21" data-name="Trazado 21" d="M328.9,160.383s-2.952,20.15,9.717,20.195c12.191.067,9.044-20.441,9.044-20.441S338.8,152.472,328.9,160.383Z" transform="translate(-99.488 -57.49)" opacity="0.15"/>
      <ellipse id="Elipse_3" data-name="Elipse 3" cx="9.381" cy="3.866" rx="9.381" ry="3.866" transform="translate(229.374 99.027)" fill="#bbbdbe"/>
      <ellipse id="Elipse_4" data-name="Elipse 4" cx="9.381" cy="3.866" rx="9.381" ry="3.866" transform="translate(229.374 99.027)" opacity="0.7"/>
      <path id="Trazado_22" data-name="Trazado 22" d="M320.185,119.84s-6.54-1.567-4.029-7C316.156,112.84,320.656,113.706,320.185,119.84Z" transform="translate(-96.2 -46.336)" fill="#938f05"/>
      <path id="Trazado_23" data-name="Trazado 23" d="M327.026,127.345s-.9-4.642,2.728-6.515C329.754,120.83,332.669,125.7,327.026,127.345Z" transform="translate(-99.065 -48.364)" fill="#938f05"/>
      <path id="Trazado_24" data-name="Trazado 24" d="M332.469,136.451s-1.084-5.552,3.259-7.791C335.736,128.66,339.226,134.474,332.469,136.451Z" transform="translate(-100.435 -50.35)" fill="#938f05"/>
      <path id="Trazado_25" data-name="Trazado 25" d="M336.7,146.829s-1.084-5.59,3.266-7.829C339.966,139,343.457,144.851,336.7,146.829Z" transform="translate(-101.503 -52.973)" fill="#938f05"/>
      <path id="Trazado_26" data-name="Trazado 26" d="M324.4,128.59s-2.31-4.127-6.294-3.224C318.117,125.366,319.022,130.963,324.4,128.59Z" transform="translate(-96.839 -49.482)" fill="#938f05"/>
      <path id="Trazado_27" data-name="Trazado 27" d="M329.466,138.048s-2.952-4.828-7.676-3.56C321.8,134.488,323.143,141.137,329.466,138.048Z" transform="translate(-97.768 -51.775)" fill="#938f05"/>
      <path id="Trazado_28" data-name="Trazado 28" d="M333.55,148.521s-3.468-4.478-8.02-2.694C325.53,145.85,327.6,152.283,333.55,148.521Z" transform="translate(-98.713 -54.599)" fill="#938f05"/>
      <path id="Trazado_29" data-name="Trazado 29" d="M334.815,155.231h.09a4.492,4.492,0,0,1,.919.067.45.45,0,0,0,0-.09,66.879,66.879,0,0,0-14.112-33.979c-.4-.515-1.121.209-.747.746a65.618,65.618,0,0,1,13.8,33.262Z" transform="translate(-97.533 -48.42)" fill="#42352f"/>
      <path id="Trazado_30" data-name="Trazado 30" d="M360.22,132.07s5.606-1.343,3.453-5.97C363.673,126.07,359.816,126.831,360.22,132.07Z" transform="translate(-107.466 -49.7)" fill="#938f05"/>
      <path id="Trazado_31" data-name="Trazado 31" d="M354.661,138.5s.747-3.978-2.34-5.59C352.321,132.91,349.817,137.082,354.661,138.5Z" transform="translate(-105.315 -51.428)" fill="#938f05"/>
      <path id="Trazado_32" data-name="Trazado 32" d="M349.792,146.3s.927-4.761-2.8-6.717C346.989,139.61,343.991,144.6,349.792,146.3Z" transform="translate(-103.937 -53.121)" fill="#938f05"/>
      <path id="Trazado_33" data-name="Trazado 33" d="M346.154,155.207s.927-4.761-2.8-6.717C343.358,148.52,340.361,153.513,346.154,155.207Z" transform="translate(-103.019 -55.381)" fill="#938f05"/>
      <path id="Trazado_34" data-name="Trazado 34" d="M356.12,139.563s1.981-3.545,5.4-2.761C361.517,136.8,360.739,141.6,356.12,139.563Z" transform="translate(-106.438 -52.387)" fill="#938f05"/>
      <path id="Trazado_35" data-name="Trazado 35" d="M351.38,147.68s2.534-4.142,6.585-3.052C357.958,144.628,356.8,150.33,351.38,147.68Z" transform="translate(-105.241 -54.355)" fill="#938f05"/>
      <path id="Trazado_36" data-name="Trazado 36" d="M347.78,156.662s2.99-3.836,6.877-2.313C354.672,154.349,352.878,159.893,347.78,156.662Z" transform="translate(-104.332 -56.777)" fill="#938f05"/>
      <path id="Trazado_37" data-name="Trazado 37" d="M356.131,133.259a57.348,57.348,0,0,0-11.451,24.956c.3-.045.605-.09.9-.119a56.32,56.32,0,0,1,11.16-24.217C357.088,133.438,356.475,132.818,356.131,133.259Z" transform="translate(-103.549 -51.478)" fill="#42352f"/>
      <g id="Grupo_3" data-name="Grupo 3" transform="translate(125.58 0)">
        <path id="Trazado_38" data-name="Trazado 38" d="M213.447,42.914a.366.366,0,0,0-.187-.254l6.092,2.881a.366.366,0,0,1,.187.254l-.747-.336-.747-.358-.747-.373-.8-.381-.8-.381-.747-.373-.747-.358Z" transform="translate(-195.94 -28.531)" fill="#ffd900"/>
        <path id="Trazado_39" data-name="Trazado 39" d="M213.166,42.629l6.092,2.881a.389.389,0,0,0-.306,0l-6.092-2.881a.389.389,0,0,1,.306,0Z" transform="translate(-195.839 -28.515)"/>
        <path id="Trazado_40" data-name="Trazado 40" d="M211.58,43.114a.856.856,0,0,0,0-.134l6.092,2.881a.855.855,0,0,1,0,.134,9.312,9.312,0,0,1-5.8,9.485L205.78,52.6a9.312,9.312,0,0,0,5.8-9.485Z" transform="translate(-194.051 -28.612)" fill="#ffd900"/>
        <path id="Trazado_41" data-name="Trazado 41" d="M210.83,39a1,1,0,0,0,.8,0l5.382,2.545.747.336a1,1,0,0,1-.8,0Z" transform="translate(-195.326 -27.602)" fill="#ffd900"/>
        <path id="Trazado_42" data-name="Trazado 42" d="M213.32,35.594a1.208,1.208,0,0,0-.6-1.194l6.092,2.881a1.208,1.208,0,0,1,.583,1.179l-6.077-2.866,6.092,2.881a2.589,2.589,0,0,1-1.42,2.239L211.9,37.833A2.589,2.589,0,0,0,213.32,35.594Z" transform="translate(-195.597 -26.435)" fill="#ffd900"/>
        <path id="Trazado_43" data-name="Trazado 43" d="M212.73,34.371l6.092,2.881a1,1,0,0,0-.8,0l-6.092-2.881a1,1,0,0,1,.8,0Z" transform="translate(-195.604 -26.407)"/>
        <path id="Trazado_44" data-name="Trazado 44" d="M207.942,53.959l-6.092-2.881a3.189,3.189,0,0,0,2.115.142,5.986,5.986,0,0,0,.8-.246,7.153,7.153,0,0,0,4.53-7.008,1.365,1.365,0,0,1,.747-1.306l6.122,2.873a1.365,1.365,0,0,0-.747,1.306,7.173,7.173,0,0,1-4.53,7.008,5.987,5.987,0,0,1-.8.246,3.189,3.189,0,0,1-2.145-.134Z" transform="translate(-193.059 -28.531)"/>
        <path id="Trazado_45" data-name="Trazado 45" d="M216.737,40.741l-6.107-2.9a1.208,1.208,0,0,1-.583-1.179,2.6,2.6,0,0,1,1.42-2.239l6.092,2.881a2.6,2.6,0,0,0-1.42,2.239,1.208,1.208,0,0,0,.6,1.2Z" transform="translate(-195.127 -26.44)"/>
        <path id="Trazado_46" data-name="Trazado 46" d="M200.64,55.962a4.94,4.94,0,0,0,3.849-.112l6.092,2.881a4.94,4.94,0,0,1-3.849.112Z" transform="translate(-192.753 -31.877)" fill="#ffd900"/>
        <path id="Trazado_47" data-name="Trazado 47" d="M201.5,53.57a2.465,2.465,0,0,1-1.121-1.09l6.092,2.881a2.465,2.465,0,0,0,1.1,1.09Z" transform="translate(-192.687 -31.022)" fill="#ffd900"/>
        <path id="Trazado_48" data-name="Trazado 48" d="M200.281,52.216a3.407,3.407,0,0,1-.292-.746l6.092,2.881a3.407,3.407,0,0,0,.292.746l-.747-.336-.747-.358-.747-.373-.8-.381-.4-.187-.792-.373-.389-.187-.381-.179-.747-.351a1.376,1.376,0,0,1-.344-.157Z" transform="translate(-192.589 -30.766)" fill="#ffd900"/>
        <path id="Trazado_49" data-name="Trazado 49" d="M200,51.417V51.29l6.092,2.881V54.3l-.747-.336L204.6,53.6l-.747-.373-.8-.381-.807-.373-.747-.373-.747-.358Z" transform="translate(-192.591 -30.721)" fill="#ffd900"/>
        <path id="Trazado_50" data-name="Trazado 50" d="M199.8,48.612a.552.552,0,0,0-.142-.522l6.092,2.918a.552.552,0,0,1,.142.522,5.773,5.773,0,0,0,.075,1.866l-.747-.336-.747-.358-.747-.373-.822-.41-.747-.381-.747-.373-.747-.358-.747-.336a5.774,5.774,0,0,1-.112-1.858Z" transform="translate(-192.505 -29.909)" fill="#ffd900"/>
        <path id="Trazado_51" data-name="Trazado 51" d="M199.64,48.09h-.06l6.092,2.881h.06l-.747-.336-.747-.358-.747-.373-.807-.388-.4-.187-.792-.373-.389-.187-.747-.358A7.813,7.813,0,0,1,199.64,48.09Z" transform="translate(-192.485 -29.909)" fill="#ffd900"/>
        <path id="Trazado_52" data-name="Trazado 52" d="M206.063,56.858l-6.084-2.888c-1.345-.634-2.19-2.187-1.9-4.881a1.291,1.291,0,0,1,.747-1.052.472.472,0,0,1,.374,0l6.092,2.881a.472.472,0,0,0-.374,0,1.291,1.291,0,0,0-.747,1.052C203.881,54.671,204.733,56.209,206.063,56.858Z" transform="translate(-192.092 -29.885)"/>
        <path id="Trazado_53" data-name="Trazado 53" d="M198.747,44l6.092,2.881a1,1,0,0,1-.8,0L198,44A1,1,0,0,0,198.747,44Z" transform="translate(-192.086 -28.871)" fill="#ffd900"/>
        <path id="Trazado_54" data-name="Trazado 54" d="M200.443,40.6a1.208,1.208,0,0,0-.583-1.179l6.092,2.881a1.208,1.208,0,0,1,.583,1.179L200.443,40.6l6.092,2.881a2.589,2.589,0,0,1-1.42,2.239L199,42.838h0A2.589,2.589,0,0,0,200.443,40.6Z" transform="translate(-192.339 -27.709)" fill="#ffd900"/>
        <path id="Trazado_55" data-name="Trazado 55" d="M199.88,39.381l6.092,2.881a1,1,0,0,0-.8,0l-6.092-2.881a1,1,0,0,1,.8,0Z" transform="translate(-192.359 -27.678)"/>
        <path id="Trazado_56" data-name="Trazado 56" d="M203.855,45.749,197.8,42.838a1.208,1.208,0,0,1-.583-1.179,2.6,2.6,0,0,1,1.42-2.239l6.092,2.881a2.6,2.6,0,0,0-1.42,2.239,1.208,1.208,0,0,0,.546,1.209Z" transform="translate(-191.887 -27.709)"/>
        <path id="Trazado_57" data-name="Trazado 57" d="M217.252,46.5c.254-.1.478,0,.516.381a9.312,9.312,0,0,1-5.8,9.485c-3.139,1.224-6.264.067-5.755-4.769a1.291,1.291,0,0,1,.747-1.052c.329-.127.628,0,.568.545-.321,3.06,1.316,4.53,3.633,3.978a5.987,5.987,0,0,0,.8-.246,7.153,7.153,0,0,0,4.53-7.008A1.365,1.365,0,0,1,217.252,46.5Z" transform="translate(-194.146 -29.496)"/>
        <path id="Trazado_58" data-name="Trazado 58" d="M206.75,43.252c.747-.3,1.4.231,1.383,1.179a2.589,2.589,0,0,1-1.42,2.239c-.747.3-1.4-.224-1.383-1.179a2.6,2.6,0,0,1,1.42-2.239Z" transform="translate(-193.937 -28.66)"/>
        <path id="Trazado_59" data-name="Trazado 59" d="M201.189,57.176,195.1,54.3c-3.08-1.493-5.068-5.1-5.008-10.12.1-8.164,5.554-16.874,12.191-19.456l6.092,2.881c-6.637,2.582-12.094,11.291-12.191,19.456C196.122,52.072,198.11,55.713,201.189,57.176Z" transform="translate(-190.088 -23.979)" fill="#ffc41d"/>
        <path id="Trazado_60" data-name="Trazado 60" d="M210.431,28.334c-6.637,2.582-12.094,11.291-12.191,19.456s5.232,12.687,11.855,10.09,12.094-11.321,12.191-19.448S217.068,25.752,210.431,28.334Zm-6.9,13.239a2.6,2.6,0,0,1,1.42-2.239c.747-.3,1.4.231,1.383,1.179a2.589,2.589,0,0,1-1.42,2.239c-.747.3-1.4-.224-1.383-1.179m6.436,10.008q-.292.112-.59.2l-.149.045a5.944,5.944,0,0,1-1.144.194h-.68l-.411-.052-.359-.082-.239-.075-.232-.1-.224-.112-.149-.09-.164-.112-.194-.157-.142-.127-.135-.142a3.181,3.181,0,0,1-.247-.313l-.15-.231a4.145,4.145,0,0,1-.434-1.112,4.941,4.941,0,0,1-.1-.5,8.1,8.1,0,0,1,0-2v-.194a1.357,1.357,0,0,1,.1-.261l.045-.082a1.2,1.2,0,0,1,.568-.522.449.449,0,0,1,.411,0h.037v.149h0v.06a.8.8,0,0,1,0,.119,1.163,1.163,0,0,1,0,.142,6.623,6.623,0,0,0-.037.687,4.538,4.538,0,0,0,.314,1.791l.082.179q.067.134.142.254a2.458,2.458,0,0,0,.815.813l.149.082.082.037.164.067.142.052h.292l.269.037h.2a3.915,3.915,0,0,0,1.032-.112l.4-.112.2-.067.194-.075a7.472,7.472,0,0,0,3.924-3.306l.06-.127q.09-.187.172-.381l.052-.127a6.712,6.712,0,0,0,.224-.664v-.134a6.021,6.021,0,0,0,.194-1.493v-.56a1.079,1.079,0,0,1,0-.112,1.238,1.238,0,0,1,.075-.425v-.052a1.493,1.493,0,0,1,.1-.187v-.045a1.494,1.494,0,0,1,.12-.164,1.113,1.113,0,0,1,.419-.321h.135a.329.329,0,0,1,.157,0h0l.075.052a.41.41,0,0,1,.1.164h0v.1h0a9.312,9.312,0,0,1-5.8,9.485m4.672-12.56c-.747.3-1.4-.224-1.383-1.179a2.6,2.6,0,0,1,1.42-2.239c.747-.3,1.4.231,1.383,1.179a2.589,2.589,0,0,1-1.42,2.239" transform="translate(-192.146 -24.713)" fill="#ffd900"/>
        <path id="Trazado_61" data-name="Trazado 61" d="M219.62,38.232c.747-.3,1.4.231,1.383,1.179a2.589,2.589,0,0,1-1.42,2.239c-.747.3-1.4-.224-1.383-1.179a2.6,2.6,0,0,1,1.42-2.239Z" transform="translate(-197.187 -27.386)"/>
        <path id="Trazado_62" data-name="Trazado 62" d="M213.247,24.446l6.092,2.881a8.518,8.518,0,0,0-6.847,0L206.4,24.446a8.518,8.518,0,0,1,6.847,0Z" transform="translate(-194.208 -23.728)" fill="#ffc41d"/>
      </g>
    </g>
  </g>
</svg>
