<svg xmlns="http://www.w3.org/2000/svg" xmlns:xlink="http://www.w3.org/1999/xlink" width="265.787" height="192.147" viewBox="0 0 265.787 192.147">
  <defs>
    <linearGradient id="linear-gradient" x1="0.286" y1="0.722" x2="0.724" y2="0.209" gradientUnits="objectBoundingBox">
      <stop offset="0" stop-color="#fff" stop-opacity="0"/>
      <stop offset="0.99" stop-color="#dc841e"/>
    </linearGradient>
    <linearGradient id="linear-gradient-2" x1="0.214" y1="0.922" x2="0.677" y2="0.216" xlink:href="#linear-gradient"/>
  </defs>
  <g id="Grupo_5" data-name="Grupo 5" transform="translate(-54.607 -78.727)">
    <g id="Smiley_face_Isometric" data-name="Smiley face_Isometric" transform="translate(54.607 78.727)">
      <path id="Trazado_1" data-name="Trazado 1" d="M151.025,225.875,27.248,152.7c-3.943-2.241-7.319-5.848-3.48-8.215L147.993,72.873c1.867-1.158,4.7-1.912,6.587-.814l129.954,75.433c3.943,2.285,4.645,8.686.7,10.971l-117.892,67.27a16.431,16.431,0,0,1-16.319.142Z" transform="translate(-22.08 -35.827)" fill="#ffd4bf"/>
      <path id="Trazado_2" data-name="Trazado 2" d="M180.946,251.283l35.692-20.24-16.849-7.6L166.27,242.112Q173.739,246.5,180.946,251.283Z" transform="translate(-58.58 -74.283)" opacity="0.32" fill="url(#linear-gradient)"/>
      <path id="Trazado_3" data-name="Trazado 3" d="M226.251,67.09c1.1.911,5.609,31.585,4.907,33.788s-7.528,5.542-7.528,5.542" transform="translate(-73.1 -34.704)" fill="#24b3b6"/>
      <path id="Trazado_4" data-name="Trazado 4" d="M168.789,60.792l-.433-.747a.7.7,0,0,0,.291-.9c-.373-.836-.747-1.673-1.143-2.5a.672.672,0,0,0,0-.306,18.716,18.716,0,0,1-.635-5.743c.172-1.553.635-3.047.747-4.6.052-.553-.583-.747-.993-.568a1.606,1.606,0,0,0-.747.829,5.37,5.37,0,0,0-.9,2.345,3.592,3.592,0,0,0-.269-1.053l-.314-1.27a9.254,9.254,0,0,0-.665-1.942c-.291-.583-.956-.851-1.292-.471-.508.575,0,1.621.082,2.293a15.067,15.067,0,0,0,.373,1.942c-.261-.627-.792-1.718-1.135-2.48-.269-.583-1.023-2.48-1.86-2.241s-.441,1.553-.209,2.166l.65,1.763c.194.523.411,1.21.635,1.688,0,0-.881-1.285-1.314-1.964-.351-.538-.747-1.329-1.494-1.083-.508.157-.478.919-.239,1.367.635,1.195,1.337,2.353,2.076,3.48-.471-.441-.934-.9-1.419-1.322a.687.687,0,0,0-1.12.575.568.568,0,0,0,.1.351l6.072,8.723a12.771,12.771,0,0,0,2.465,3.734c.583.612,1.494-.314.934-.934l-.082-.1a.658.658,0,0,0,.06-.1.694.694,0,0,0,.463-.358h.045a.665.665,0,0,0,.209.1.65.65,0,0,0,1.061-.68Z" transform="translate(-56.349 -28.698)" fill="#ffb7a2"/>
      <path id="Trazado_5" data-name="Trazado 5" d="M165.859,50.986a3.981,3.981,0,0,0-1.494,3.458c0,.3.493.3.463,0a3.555,3.555,0,0,1,1.352-3.129C166.426,51.158,166.09,50.829,165.859,50.986Z" transform="translate(-58.094 -30.617)" fill="#42342d"/>
      <path id="Trazado_6" data-name="Trazado 6" d="M165.071,48.758q-.5-1.837-.844-3.734c-.052-.291-.5-.172-.448.127q.344,1.875.844,3.734a.233.233,0,1,0,.448-.127Z" transform="translate(-57.948 -29.076)" fill="#42342d"/>
      <path id="Trazado_7" data-name="Trazado 7" d="M162.219,49.972a26.684,26.684,0,0,1-1.494-4.22.233.233,0,0,0-.448.127,27.415,27.415,0,0,0,1.576,4.332C161.942,50.48,162.308,50.241,162.219,49.972Z" transform="translate(-57.061 -29.26)" fill="#42342d"/>
      <path id="Trazado_8" data-name="Trazado 8" d="M160.919,52.594a17.522,17.522,0,0,1-2.495-3.772c-.134-.269-.538,0-.4.232a17.993,17.993,0,0,0,2.569,3.869C160.792,53.146,161.12,52.818,160.919,52.594Z" transform="translate(-56.485 -30.052)" fill="#42342d"/>
      <path id="Trazado_9" data-name="Trazado 9" d="M218.706,203.423s-.336,9.239,1.352,12.032,10.12,7.506,7.894,9.478-7.469.978-9.231-1.187a43.749,43.749,0,0,1-3.114-4.772v3.5s-3.51-2.091-3.51-2.241-.807-20.845-.807-20.845" transform="translate(-69.976 -68.195)" fill="#42342d"/>
      <path id="Trazado_10" data-name="Trazado 10" d="M201.594,208.636s-.344,9.216,1.367,12,10.583,9.164,8.335,11.128-7.469.157-9.657-2.539a31.864,31.864,0,0,1-3.174-5.071v3.488s-3.54-2.084-3.54-2.241-.814-20.793-.814-20.793" transform="translate(-65.627 -69.516)" fill="#42342d"/>
      <path id="Trazado_11" data-name="Trazado 11" d="M215.756,105.7c.448,1.158,4.578,68.823.224,77.435a21.891,21.891,0,0,1-11.494,2.427l-1.419,5.041s-10.68,3.316-18.4.1c0,0-4.481-60.443,9.171-85.247" transform="translate(-63.06 -44.415)" fill="#f82424"/>
      <path id="Trazado_12" data-name="Trazado 12" d="M219.224,93.511c.261-3.107.261-7.2.314-7.924q.194-2.771.351-5.542.194-3.353.329-6.722c.134-3.219.508-7.006-1.725-9.664-2.36-2.778-7.424-3.675-10.867-3.226a14.359,14.359,0,0,0-8.91,5.5,206.817,206.817,0,0,0-1.561,28.082C203.824,95.983,214.011,97.858,219.224,93.511Z" transform="translate(-66.394 -32.991)" fill="#26d0d4"/>
      <path id="Trazado_13" data-name="Trazado 13" d="M198.617,59.774a16.431,16.431,0,0,0-7.782,2.412c-1.778,1.165-2.808,3.055-4.735,4.018-2.592,1.3-6.386,1.285-8.522-.911a47.362,47.362,0,0,1-3.264-3.943c-.8-1.023-4.078-6.341-5.811-5.7-2.024.747-4.937,3.6-5.064,5.228s8.469,18.477,16.028,19.665a20.165,20.165,0,0,0,13.518-2.987" transform="translate(-57.863 -31.795)" fill="#26d0d4"/>
      <path id="Trazado_14" data-name="Trazado 14" d="M208.1,57.24v4.825a9.836,9.836,0,0,0,5.826,0V57.733" transform="translate(-69.169 -32.211)" fill="#fcaa97"/>
      <path id="Trazado_15" data-name="Trazado 15" d="M217.948,42.373c.336.082,2.472,14.459-3.5,14.579s-7.118-4.578-7.3-5.781,1.718-4.855,2.308-6.214S216.492,42.014,217.948,42.373Z" transform="translate(-68.927 -28.434)" fill="#ffb7a2"/>
      <path id="Trazado_16" data-name="Trazado 16" d="M217.325,39.539c-1.8-3.249-8.761-3.988-13.608.456a7.11,7.11,0,0,0-1.957,4.877,10.224,10.224,0,0,0,5.728,8.529v-.052a.565.565,0,0,0-.052-.269c-.052-.09,0-.127-.037-.194a12.69,12.69,0,0,1,.792-7.932c1.188-2.256,3.585-2.905,5.938-3.271a7.469,7.469,0,0,1,2.33-.232l.747,3.689a4.982,4.982,0,0,0,.12-5.6Z" transform="translate(-67.564 -27.057)" fill="#edb033"/>
      <circle id="Elipse_2" data-name="Elipse 2" cx="4.593" cy="4.593" r="4.593" transform="translate(127.027 9.976) rotate(-3.98)" fill="#edb033"/>
      <path id="Trazado_17" data-name="Trazado 17" d="M218.229,44.667H212.59l-.523-1.7-.485,2.106-1.606.1s-.082,8.686-1.322,8.873-2.987-3.54-3.159-5.721,1.016-6.886,5.094-8.148C215.7,38.6,217.99,40.657,218.229,44.667Z" transform="translate(-68.505 -27.757)" fill="#edb033"/>
      <path id="Trazado_18" data-name="Trazado 18" d="M214.963,127.283Q213.9,159.2,210.549,190.99c-.067.657.956.65,1.023,0q3.346-31.764,4.414-63.707C216.008,126.626,214.985,126.626,214.963,127.283Z" transform="translate(-69.788 -49.817)" fill="#fff"/>
      <path id="Trazado_19" data-name="Trazado 19" d="M326.373,184.125l-52.056,29.523-13.757-7.655L311.705,177.5" transform="translate(-82.448 -62.653)" opacity="0.32" fill="url(#linear-gradient-2)"/>
      <path id="Trazado_20" data-name="Trazado 20" d="M328.9,160.385s-2.95,20.165,9.709,20.21c12.181.067,9.037-20.457,9.037-20.457S338.795,152.469,328.9,160.385Z" transform="translate(-99.672 -57.414)" fill="#bbbdbe"/>
      <path id="Trazado_21" data-name="Trazado 21" d="M328.9,160.385s-2.95,20.165,9.709,20.21c12.181.067,9.037-20.457,9.037-20.457S338.795,152.469,328.9,160.385Z" transform="translate(-99.672 -57.414)" opacity="0.15"/>
      <ellipse id="Elipse_3" data-name="Elipse 3" cx="9.373" cy="3.869" rx="9.373" ry="3.869" transform="translate(229.19 99.103)" fill="#bbbdbe"/>
      <ellipse id="Elipse_4" data-name="Elipse 4" cx="9.373" cy="3.869" rx="9.373" ry="3.869" transform="translate(229.19 99.103)" opacity="0.7"/>
      <path id="Trazado_22" data-name="Trazado 22" d="M320.181,119.846s-6.535-1.568-4.026-7.006C316.156,112.84,320.652,113.706,320.181,119.846Z" transform="translate(-96.376 -46.285)" fill="#938f05"/>
      <path id="Trazado_23" data-name="Trazado 23" d="M327.026,127.35s-.9-4.645,2.726-6.52C329.752,120.83,332.665,125.7,327.026,127.35Z" transform="translate(-99.248 -48.308)" fill="#938f05"/>
      <path id="Trazado_24" data-name="Trazado 24" d="M332.469,136.457s-1.083-5.557,3.256-7.8C335.733,128.66,339.221,134.478,332.469,136.457Z" transform="translate(-100.621 -50.29)" fill="#938f05"/>
      <path id="Trazado_25" data-name="Trazado 25" d="M336.7,146.835s-1.083-5.594,3.264-7.835C339.963,139,343.451,144.855,336.7,146.835Z" transform="translate(-101.692 -52.908)" fill="#938f05"/>
      <path id="Trazado_26" data-name="Trazado 26" d="M324.4,128.593s-2.308-4.13-6.289-3.226C318.117,125.366,319.021,130.968,324.4,128.593Z" transform="translate(-97.016 -49.424)" fill="#938f05"/>
      <path id="Trazado_27" data-name="Trazado 27" d="M329.46,138.05s-2.95-4.832-7.67-3.563C321.8,134.488,323.142,141.142,329.46,138.05Z" transform="translate(-97.948 -51.712)" fill="#938f05"/>
      <path id="Trazado_28" data-name="Trazado 28" d="M333.544,148.524s-3.465-4.481-8.014-2.7C325.53,145.85,327.6,152.288,333.544,148.524Z" transform="translate(-98.895 -54.53)" fill="#938f05"/>
      <path id="Trazado_29" data-name="Trazado 29" d="M334.8,155.257h.09a4.481,4.481,0,0,1,.919.067.451.451,0,0,0,0-.09,66.986,66.986,0,0,0-14.1-34c-.4-.515-1.12.209-.747.747a65.724,65.724,0,0,1,13.787,33.288Z" transform="translate(-97.713 -48.365)" fill="#42352f"/>
      <path id="Trazado_30" data-name="Trazado 30" d="M360.22,132.075s5.6-1.344,3.45-5.975C363.67,126.07,359.817,126.832,360.22,132.075Z" transform="translate(-107.669 -49.642)" fill="#938f05"/>
      <path id="Trazado_31" data-name="Trazado 31" d="M354.659,138.5s.747-3.981-2.338-5.594C352.321,132.91,349.819,137.085,354.659,138.5Z" transform="translate(-105.513 -51.366)" fill="#938f05"/>
      <path id="Trazado_32" data-name="Trazado 32" d="M349.789,146.3s.926-4.765-2.793-6.722C346.988,139.61,343.993,144.606,349.789,146.3Z" transform="translate(-104.131 -53.054)" fill="#938f05"/>
      <path id="Trazado_33" data-name="Trazado 33" d="M346.151,155.212s.926-4.765-2.793-6.722C343.357,148.52,340.363,153.516,346.151,155.212Z" transform="translate(-103.211 -55.31)" fill="#938f05"/>
      <path id="Trazado_34" data-name="Trazado 34" d="M356.12,139.565s1.979-3.548,5.392-2.763C361.512,136.8,360.736,141.6,356.12,139.565Z" transform="translate(-106.638 -52.322)" fill="#938f05"/>
      <path id="Trazado_35" data-name="Trazado 35" d="M351.38,147.683s2.532-4.145,6.58-3.055C357.952,144.628,356.795,150.334,351.38,147.683Z" transform="translate(-105.438 -54.286)" fill="#938f05"/>
      <path id="Trazado_36" data-name="Trazado 36" d="M347.78,156.664s2.987-3.839,6.871-2.315C354.666,154.349,352.874,159.9,347.78,156.664Z" transform="translate(-104.527 -56.702)" fill="#938f05"/>
      <path id="Trazado_37" data-name="Trazado 37" d="M356.122,133.259a57.433,57.433,0,0,0-11.442,24.975c.3-.045.6-.09.9-.119a56.4,56.4,0,0,1,11.151-24.236C357.078,133.438,356.465,132.818,356.122,133.259Z" transform="translate(-103.742 -51.416)" fill="#42352f"/>
      <g id="Grupo_3" data-name="Grupo 3" transform="translate(125.479 0)">
        <path id="Trazado_38" data-name="Trazado 38" d="M213.447,42.914a.366.366,0,0,0-.187-.254l6.087,2.883a.366.366,0,0,1,.187.254l-.747-.336-.747-.358-.747-.373-.8-.381-.8-.381-.747-.373-.747-.358Z" transform="translate(-195.954 -28.52)" fill="#ffd900"/>
        <path id="Trazado_39" data-name="Trazado 39" d="M213.166,42.629l6.087,2.883a.388.388,0,0,0-.306,0l-6.087-2.883a.388.388,0,0,1,.306,0Z" transform="translate(-195.853 -28.504)"/>
        <path id="Trazado_40" data-name="Trazado 40" d="M211.576,43.114a.858.858,0,0,0,0-.134l6.087,2.883a.86.86,0,0,1,0,.134,9.321,9.321,0,0,1-5.8,9.493l-6.087-2.883a9.321,9.321,0,0,0,5.8-9.493Z" transform="translate(-194.06 -28.601)" fill="#ffd900"/>
        <path id="Trazado_41" data-name="Trazado 41" d="M210.83,39a.993.993,0,0,0,.8,0l5.377,2.547.747.336a.993.993,0,0,1-.8,0Z" transform="translate(-195.339 -27.594)" fill="#ffd900"/>
        <path id="Trazado_42" data-name="Trazado 42" d="M213.319,35.595a1.21,1.21,0,0,0-.6-1.195l6.087,2.883a1.21,1.21,0,0,1,.583,1.18l-6.072-2.868,6.087,2.883a2.592,2.592,0,0,1-1.419,2.241L211.9,37.836A2.592,2.592,0,0,0,213.319,35.595Z" transform="translate(-195.61 -26.429)" fill="#ffd900"/>
        <path id="Trazado_43" data-name="Trazado 43" d="M212.729,34.372l6.087,2.883a.993.993,0,0,0-.8,0l-6.087-2.883a.993.993,0,0,1,.8,0Z" transform="translate(-195.617 -26.401)"/>
        <path id="Trazado_44" data-name="Trazado 44" d="M207.937,53.967l-6.087-2.883a3.182,3.182,0,0,0,2.114.142,5.974,5.974,0,0,0,.8-.246,7.159,7.159,0,0,0,4.526-7.013,1.367,1.367,0,0,1,.747-1.307l6.117,2.875a1.367,1.367,0,0,0-.747,1.307,7.179,7.179,0,0,1-4.526,7.013,5.976,5.976,0,0,1-.8.246,3.182,3.182,0,0,1-2.143-.134Z" transform="translate(-193.066 -28.52)"/>
        <path id="Trazado_45" data-name="Trazado 45" d="M216.732,40.746l-6.1-2.905a1.21,1.21,0,0,1-.583-1.18,2.6,2.6,0,0,1,1.419-2.241l6.087,2.883a2.6,2.6,0,0,0-1.419,2.241,1.21,1.21,0,0,0,.6,1.2Z" transform="translate(-195.139 -26.434)"/>
        <path id="Trazado_46" data-name="Trazado 46" d="M200.64,55.962a4.929,4.929,0,0,0,3.846-.112l6.087,2.883a4.929,4.929,0,0,1-3.846.112Z" transform="translate(-192.759 -31.859)" fill="#ffd900"/>
        <path id="Trazado_47" data-name="Trazado 47" d="M201.5,53.57a2.465,2.465,0,0,1-1.12-1.09l6.087,2.883a2.465,2.465,0,0,0,1.1,1.09Z" transform="translate(-192.693 -31.006)" fill="#ffd900"/>
        <path id="Trazado_48" data-name="Trazado 48" d="M200.281,52.217a3.413,3.413,0,0,1-.291-.747l6.087,2.883a3.413,3.413,0,0,0,.291.747l-.747-.336-.747-.358-.747-.373-.8-.381-.4-.187-.792-.373-.388-.187-.381-.179-.747-.351a1.374,1.374,0,0,1-.344-.157Z" transform="translate(-192.595 -30.75)" fill="#ffd900"/>
        <path id="Trazado_49" data-name="Trazado 49" d="M200,51.417V51.29l6.087,2.883V54.3l-.747-.336-.747-.358-.747-.373-.8-.381-.807-.373-.747-.373-.747-.358Z" transform="translate(-192.597 -30.705)" fill="#ffd900"/>
        <path id="Trazado_50" data-name="Trazado 50" d="M199.8,48.613a.553.553,0,0,0-.142-.523l6.087,2.92a.553.553,0,0,1,.142.523,5.787,5.787,0,0,0,.075,1.867l-.747-.336-.747-.358-.747-.373-.822-.411-.747-.381-.747-.373-.747-.358-.747-.336a5.787,5.787,0,0,1-.112-1.86Z" transform="translate(-192.511 -29.895)" fill="#ffd900"/>
        <path id="Trazado_51" data-name="Trazado 51" d="M199.64,48.09h-.06l6.087,2.883h.06l-.747-.336-.747-.358-.747-.373-.807-.388-.4-.187-.792-.373-.388-.187-.747-.358A7.8,7.8,0,0,1,199.64,48.09Z" transform="translate(-192.491 -29.895)" fill="#ffd900"/>
        <path id="Trazado_52" data-name="Trazado 52" d="M206.057,56.865l-6.079-2.89c-1.344-.635-2.188-2.188-1.9-4.884a1.292,1.292,0,0,1,.747-1.053.471.471,0,0,1,.373,0l6.087,2.883a.471.471,0,0,0-.373,0,1.292,1.292,0,0,0-.747,1.053C203.876,54.676,204.728,56.215,206.057,56.865Z" transform="translate(-192.097 -29.872)"/>
        <path id="Trazado_53" data-name="Trazado 53" d="M198.747,44l6.087,2.883a.993.993,0,0,1-.8,0L198,44A.993.993,0,0,0,198.747,44Z" transform="translate(-192.091 -28.859)" fill="#ffd900"/>
        <path id="Trazado_54" data-name="Trazado 54" d="M200.441,40.6a1.21,1.21,0,0,0-.583-1.18l6.087,2.883a1.21,1.21,0,0,1,.583,1.18L200.441,40.6l6.087,2.883a2.592,2.592,0,0,1-1.419,2.241L199,42.841h0A2.592,2.592,0,0,0,200.441,40.6Z" transform="translate(-192.344 -27.7)" fill="#ffd900"/>
        <path id="Trazado_55" data-name="Trazado 55" d="M199.879,39.382l6.087,2.883a.993.993,0,0,0-.8,0l-6.087-2.883a.993.993,0,0,1,.8,0Z" transform="translate(-192.364 -27.669)"/>
        <path id="Trazado_56" data-name="Trazado 56" d="M203.849,45.753l-6.05-2.913a1.21,1.21,0,0,1-.583-1.18,2.6,2.6,0,0,1,1.419-2.241l6.087,2.883a2.6,2.6,0,0,0-1.419,2.241,1.21,1.21,0,0,0,.545,1.21Z" transform="translate(-191.891 -27.7)"/>
        <path id="Trazado_57" data-name="Trazado 57" d="M217.243,46.5c.254-.1.478,0,.515.381a9.321,9.321,0,0,1-5.8,9.493c-3.137,1.225-6.259.067-5.751-4.772a1.292,1.292,0,0,1,.747-1.053c.329-.127.627,0,.568.545-.321,3.062,1.314,4.533,3.63,3.981a5.975,5.975,0,0,0,.8-.246,7.159,7.159,0,0,0,4.526-7.013A1.367,1.367,0,0,1,217.243,46.5Z" transform="translate(-194.156 -29.483)"/>
        <path id="Trazado_58" data-name="Trazado 58" d="M206.749,43.252c.747-.3,1.4.232,1.382,1.18a2.592,2.592,0,0,1-1.419,2.241c-.747.3-1.4-.224-1.382-1.18a2.6,2.6,0,0,1,1.419-2.241Z" transform="translate(-193.946 -28.649)"/>
        <path id="Trazado_59" data-name="Trazado 59" d="M201.18,57.2l-6.087-2.883c-3.077-1.494-5.064-5.1-5-10.127.1-8.171,5.549-16.887,12.181-19.471l6.087,2.883c-6.632,2.584-12.084,11.3-12.181,19.471C196.117,52.092,198.1,55.737,201.18,57.2Z" transform="translate(-190.088 -23.979)" fill="#ffc41d"/>
        <path id="Trazado_60" data-name="Trazado 60" d="M210.421,28.335c-6.632,2.584-12.084,11.3-12.181,19.471s5.228,12.7,11.845,10.1,12.084-11.33,12.181-19.463S217.053,25.75,210.421,28.335Zm-6.894,13.249a2.6,2.6,0,0,1,1.419-2.241c.747-.3,1.4.232,1.382,1.18a2.592,2.592,0,0,1-1.419,2.241c-.747.3-1.4-.224-1.382-1.18m6.43,10.015q-.291.112-.59.2l-.149.045a5.931,5.931,0,0,1-1.143.194h-.68l-.411-.052-.358-.082-.239-.075-.232-.1-.224-.112-.149-.09-.164-.112-.194-.157-.142-.127-.134-.142a3.184,3.184,0,0,1-.246-.314l-.149-.232a4.152,4.152,0,0,1-.433-1.113,4.953,4.953,0,0,1-.1-.5,8.12,8.12,0,0,1,0-2V46.64a1.36,1.36,0,0,1,.1-.261l.045-.082a1.2,1.2,0,0,1,.568-.523.448.448,0,0,1,.411,0h.037v.149h0v.06a.805.805,0,0,1,0,.119,1.165,1.165,0,0,1,0,.142,6.637,6.637,0,0,0-.037.687,4.548,4.548,0,0,0,.314,1.792l.082.179q.067.134.142.254a2.458,2.458,0,0,0,.814.814l.149.082.082.037.164.067.142.052h.291l.269.037h.2a3.906,3.906,0,0,0,1.031-.112l.4-.112.2-.067.194-.075a7.469,7.469,0,0,0,3.921-3.309l.06-.127q.09-.187.172-.381l.052-.127a6.727,6.727,0,0,0,.224-.665v-.134a6.035,6.035,0,0,0,.194-1.494v-.56a1.08,1.08,0,0,1,0-.112,1.24,1.24,0,0,1,.075-.426V42.5a1.494,1.494,0,0,1,.1-.187v-.045a1.5,1.5,0,0,1,.12-.164,1.113,1.113,0,0,1,.418-.321h.134a.329.329,0,0,1,.157,0h0l.075.052a.411.411,0,0,1,.1.164h0v.1h0a9.321,9.321,0,0,1-5.8,9.493m4.668-12.57c-.747.3-1.4-.224-1.382-1.18a2.6,2.6,0,0,1,1.419-2.241c.747-.3,1.4.232,1.382,1.18a2.592,2.592,0,0,1-1.419,2.241" transform="translate(-192.151 -24.711)" fill="#ffd900"/>
        <path id="Trazado_61" data-name="Trazado 61" d="M219.619,38.232c.747-.3,1.4.232,1.382,1.18a2.592,2.592,0,0,1-1.419,2.241c-.747.3-1.4-.224-1.382-1.18a2.6,2.6,0,0,1,1.419-2.241Z" transform="translate(-197.204 -27.378)"/>
        <path id="Trazado_62" data-name="Trazado 62" d="M213.241,24.446l6.087,2.883a8.5,8.5,0,0,0-6.841,0L206.4,24.446a8.5,8.5,0,0,1,6.841,0Z" transform="translate(-194.217 -23.728)" fill="#ffc41d"/>
      </g>
    </g>
  </g>
</svg>
